# xmcd CD database file
#
# Track frame offsets:
#	183
#	16723
#	35278
#	58478
#	76553
#	95388
#	122783
#	145178
#	165103
#	185823
#	206720
#	228078
#
# Disc length: 3247 seconds
#
# Revision: 0
# Processed by: cddbd v1.5.2PL0 Copyright (c) Steve Scherf et al.
# Submitted via: CDex 1.51
#
DISCID=900cad0c
DTITLE=Various Artist - Salsa Vol 2
DYEAR=1900
DGENRE=Salsa
TTITLE0=Que bueno baila celina
TTITLE1=Caballo viejo
TTITLE2=guantamamera
TTITLE3=esa negra
TTITLE4=mosaico 1930
TTITLE5=cruz de navajas
TTITLE6=mata que dios perdona
TTITLE7=homenaje (donde yo naci)
TTITLE8=calen~ita
TTITLE9=blancas margaritas
TTITLE10=noche de rumberos
TTITLE11=no hay que preguntarlo
EXTD=
EXTT0=
EXTT1=
EXTT2=
EXTT3=
EXTT4=
EXTT5=
EXTT6=
EXTT7=
EXTT8=
EXTT9=
EXTT10=
EXTT11=
PLAYORDER=
